<?xml version="1.0" encoding="iso-8859-1"?>
<!-- Generator: Adobe Illustrator 19.0.0, SVG Export Plug-In . SVG Version: 6.00 Build 0)  -->
<svg version="1.1" id="Layer_1" xmlns="http://www.w3.org/2000/svg" xmlns:xlink="http://www.w3.org/1999/xlink" x="0px" y="0px"
	 viewBox="0 0 512 512" style="enable-background:new 0 0 512 512;" xml:space="preserve">
<path style="fill:#1E0478;" d="M457.634,134.685c29.975,0,54.366,24.38,54.366,54.355s-24.391,54.366-54.366,54.366
	c-10.932,0-21.111-3.258-29.638-8.831l-58.736,58.736c5.573,8.539,8.831,18.717,8.831,29.649c0,29.975-24.391,54.355-54.366,54.355
	s-54.366-24.38-54.366-54.355c0-10.538,3.022-20.369,8.224-28.705l-59.658-59.68c-8.539,5.573-18.717,8.831-29.649,8.831
	c-10.932,0-21.11-3.258-29.649-8.831l-58.725,58.736c5.573,8.527,8.831,18.717,8.831,29.649c0,29.975-24.391,54.355-54.366,54.355
	S0,352.935,0,322.96c0-29.975,24.391-54.366,54.366-54.366c10.932,0,21.111,3.258,29.638,8.831l58.736-58.736
	c-5.573-8.539-8.831-18.717-8.831-29.649c0-29.975,24.391-54.355,54.366-54.355s54.366,24.38,54.366,54.355
	c0,10.932-3.258,21.111-8.831,29.649l59.332,59.343c8.718-5.955,19.246-9.437,30.582-9.437c10.932,0,21.111,3.258,29.649,8.831
	l58.736-58.736c-5.584-8.527-8.842-18.717-8.842-29.649C403.268,159.065,427.659,134.685,457.634,134.685z M489.53,189.04
	c0-17.583-14.313-31.885-31.896-31.885c-17.583,0-31.896,14.302-31.896,31.885c0,17.594,14.313,31.896,31.896,31.896
	C475.217,220.936,489.53,206.634,489.53,189.04z M355.62,322.96c0-17.594-14.313-31.896-31.896-31.896
	c-17.583,0-31.896,14.302-31.896,31.896c0,17.583,14.313,31.885,31.896,31.885C341.307,354.845,355.62,340.543,355.62,322.96z
	 M220.172,189.04c0-17.583-14.313-31.885-31.896-31.885s-31.896,14.302-31.896,31.885c0,17.594,14.313,31.896,31.896,31.896
	S220.172,206.634,220.172,189.04z M86.262,322.96c0-17.594-14.313-31.896-31.896-31.896S22.47,305.366,22.47,322.96
	c0,17.583,14.313,31.885,31.896,31.885S86.262,340.543,86.262,322.96z"/>
<path style="fill:#9B8CCC;" d="M457.634,157.155c17.583,0,31.896,14.302,31.896,31.885c0,17.594-14.313,31.896-31.896,31.896
	c-17.583,0-31.896-14.302-31.896-31.896C425.738,171.457,440.051,157.155,457.634,157.155z"/>
<path style="fill:#1E0478;" d="M373.967,200.937c4.382,4.393,4.382,11.505,0,15.886l-22.863,22.863
	c-2.191,2.191-5.067,3.281-7.943,3.281s-5.752-1.09-7.943-3.281c-4.382-4.393-4.382-11.505,0-15.897l22.852-22.852
	C362.463,196.556,369.574,196.556,373.967,200.937z"/>
<path style="fill:#FFFFFF;" d="M323.724,291.064c17.583,0,31.896,14.302,31.896,31.896c0,17.583-14.313,31.885-31.896,31.885
	c-17.583,0-31.896-14.302-31.896-31.885C291.828,305.366,306.142,291.064,323.724,291.064z"/>
<path style="fill:#94E7EF;" d="M188.276,157.155c17.583,0,31.896,14.302,31.896,31.885c0,17.594-14.313,31.896-31.896,31.896
	s-31.896-14.302-31.896-31.896C156.38,171.457,170.693,157.155,188.276,157.155z"/>
<path style="fill:#1E0478;" d="M176.771,272.718c4.393,4.382,4.393,11.505,0,15.886l-22.852,22.852
	c-2.191,2.202-5.067,3.292-7.943,3.292c-2.876,0-5.752-1.09-7.943-3.292c-4.393-4.382-4.393-11.493,0-15.886l22.852-22.852
	C165.278,268.325,172.389,268.325,176.771,272.718z"/>
<path style="fill:#6F7CCD;" d="M54.366,291.064c17.583,0,31.896,14.302,31.896,31.896c0,17.583-14.313,31.885-31.896,31.885
	S22.47,340.543,22.47,322.96C22.47,305.366,36.783,291.064,54.366,291.064z"/>
<g>
</g>
<g>
</g>
<g>
</g>
<g>
</g>
<g>
</g>
<g>
</g>
<g>
</g>
<g>
</g>
<g>
</g>
<g>
</g>
<g>
</g>
<g>
</g>
<g>
</g>
<g>
</g>
<g>
</g>
</svg>
