<?xml version="1.0" encoding="iso-8859-1"?>
<!-- Generator: Adobe Illustrator 19.0.0, SVG Export Plug-In . SVG Version: 6.00 Build 0)  -->
<svg version="1.1" id="Layer_1" xmlns="http://www.w3.org/2000/svg" xmlns:xlink="http://www.w3.org/1999/xlink" x="0px" y="0px"
	 viewBox="0 0 492 492" style="enable-background:new 0 0 492 492;" xml:space="preserve">
<g>
	<g>
		<path style="fill:#3C92CA;" d="M286,1.4c-5.5,0-9.9,4.4-9.9,9.9v196.1c0,5.5,4.4,9.9,9.9,9.9h196.1c5.5,0,9.9-4.4,9.9-9.9
			c0-50.3-18.3-98.7-51.6-136.4C401.3,26.8,345,1.4,286,1.4z M295.9,197.5v-176c49.7,2.7,96.5,25.2,129.7,62.7
			c27.9,31.5,44.1,71.5,46.4,113.3H295.9z"/>
		<path style="fill:#2C2F33;" d="M443.7,268.7c0-5.5-4.4-9.9-9.9-9.9h-202V56.7c0-5.5-4.4-9.9-9.9-9.9C99.5,46.8,0,146.3,0,268.7
			C0,391,99.5,490.6,221.9,490.6S443.7,391,443.7,268.7z M221.9,470.8c-111.4,0-202.1-90.7-202.1-202.1
			C19.8,160.6,105.1,72,212,66.8v201.8c0,5.5,4.4,9.9,9.9,9.9h201.8C418.5,385.4,330,470.8,221.9,470.8z"/>
	</g>
</g>
<g>
</g>
<g>
</g>
<g>
</g>
<g>
</g>
<g>
</g>
<g>
</g>
<g>
</g>
<g>
</g>
<g>
</g>
<g>
</g>
<g>
</g>
<g>
</g>
<g>
</g>
<g>
</g>
<g>
</g>
</svg>
